PathFileType	4	(X/Y/Z)	C:\Users\°ÂÌØÂü\Desktop\20210112\bx_y_0_502-Unnamed.trc
DataRate	CameraRate	NumFrames	NumMarkers	Units	OrigDataRate	OrigDataStartFrame	OrigNumFrames
50.00	50.00	       7	0	mm	50.00	71	       560
Frame#	Time	
		

71	1.400	-672.42474	115.27621	1847.70313	-703.53333	293.83936	1531.72034	-625.31824	277.99567	877.34186	-573.66974	-1.11867	802.09827	-567.27539	213.18155	813.80072	-712.99414	247.43767	638.73761	-718.49615	244.07944	575.71259	-665.36096	204.86215	531.13519	-760.88177	252.91527	503.99799	-662.96106	-66.18909	163.93973	-517.45874	-72.90818	143.28499	-716.54382	79.04453	215.64452	-603.47174	21.04561	165.00662	-675.12555	56.57237	156.19583	-710.93579	151.02655	215.79897	-795.97644	171.75380	184.58504	-770.31372	221.58611	206.03040	-594.40631	221.70886	173.17548	-882.45593	296.22400	144.77756	-560.21814	260.50705	165.98543	-666.60889	298.62997	160.78383	-629.04089	305.53311	162.67191	-527.96613	304.46701	146.49799	-686.31079	-72.12103	1539.15466	-779.74890	96.28777	1051.56396	-765.72144	-5.10854	208.74263	-794.74554	55.31367	175.61829	-754.18829	-35.47461	489.34204	-559.51367	-38.22926	165.06602	-876.02838	-78.54763	141.55200	-582.54584	-8.42053	1050.92346	-695.62958	-28.60608	611.90875	-706.49945	-25.56889	567.05304	-675.45862	172.20784	155.79387	-621.89990	-76.88660	159.66107	-667.90619	-55.31593	731.98340	-572.02771	219.17076	1071.13318	-641.02216	-71.88040	863.40741	-669.64923	262.16858	709.12726	-659.32745	20.80078	518.54730	-682.47687	80.43860	574.47369	-677.98346	142.61267	571.72662	
72	1.420	-671.88818	115.26994	1847.66040	-703.32855	293.80252	1531.83142	-625.47211	278.06854	877.20868	-573.66223	-1.35722	801.86041	-567.25348	213.02589	813.89990	-713.31195	247.51077	638.88434	-718.40039	244.07234	575.59003	-665.48541	204.88991	531.00427	-761.01099	252.90277	503.83670	-662.92554	-66.20499	163.88599	-517.52930	-72.39462	143.20398	-716.52173	78.87680	215.66255	-603.47766	20.94319	165.05417	-675.16718	56.63588	156.10553	-710.88623	151.00990	215.53522	-795.93970	171.79343	184.61842	-770.38300	221.67867	205.96967	-594.51501	221.72072	173.23067	-882.58838	296.24594	144.71477	-560.08508	260.56030	165.97980	-666.66534	298.62756	160.71053	-629.44421	305.64517	162.45557	-528.11536	304.45233	146.53067	-686.17719	-72.18832	1539.22742	-779.83966	96.27119	1051.55603	-765.73322	-5.14771	208.68318	-794.74554	55.31367	175.61829	-754.32141	-35.26328	489.36929	-559.51367	-38.22926	165.06602	-876.15070	-78.40914	141.55756	-582.54584	-8.42053	1050.92346	-695.74725	-28.58667	611.77441	-706.56201	-25.43641	566.98608	-675.42804	171.92091	156.19180	-621.89697	-76.96593	159.56277	-668.32281	-55.49208	732.41272	-572.05646	219.25673	1071.00488	-641.18024	-71.72997	863.25525	-669.67316	262.60043	709.21930	-659.50354	20.91398	518.40466	-682.66901	80.35928	574.53467	-677.82849	142.90761	572.01434	
73	1.440	-671.13776	115.33408	1847.65747	-703.16895	293.96658	1531.92676	-625.44995	278.10318	877.01270	-573.79230	-1.07235	802.02356	-567.20123	213.12401	813.74567	-713.19464	247.69017	638.69214	-718.34338	244.20808	575.64771	-665.41870	204.83121	530.93915	-761.11633	253.21117	503.91898	-662.89563	-66.11363	163.92676	-517.51959	-72.62701	143.19086	-716.52173	78.87680	215.66255	-603.47546	21.00136	165.18347	-675.15015	56.49903	155.97717	-710.59644	151.39552	215.68045	-796.01587	171.86554	184.63687	-770.44049	221.77750	206.14655	-594.60553	221.69624	173.17551	-882.58838	296.24594	144.71477	-559.99896	260.34790	166.02098	-666.60889	298.62997	160.78383	-629.29071	305.54691	162.33327	-528.08679	304.23312	146.60699	-686.09015	-72.09281	1539.11609	-780.00482	96.53963	1051.70862	-765.73322	-5.14771	208.68318	-794.75751	55.39971	175.45714	-754.45093	-35.33112	489.44305	-559.44983	-38.40571	164.98152	-876.02838	-78.54763	141.55200	-582.33209	-8.02995	1050.94080	-695.74109	-28.52954	611.82184	-706.56201	-25.43641	566.98608	-675.35278	171.94685	156.30870	-622.01862	-76.85032	159.59120	-668.16376	-55.26662	732.14044	-572.05646	219.25673	1071.00488	-641.59125	-71.31729	862.88452	-669.30066	263.10202	709.55035	-659.61877	20.71830	518.68030	-682.89258	80.46824	574.63129	-677.94263	143.03140	571.98474	
74	1.460	-670.61761	115.61771	1847.59375	-703.11963	293.92725	1531.90955	-625.44995	278.10318	877.01270	-573.98401	-0.98727	801.91187	-567.27539	213.18155	813.80072	-713.19464	247.69017	638.69214	-718.35217	244.33220	575.90906	-665.43439	204.89906	531.20068	-761.02490	253.33577	503.72577	-662.95673	-66.23090	163.82857	-517.43677	-72.43692	143.24425	-716.43085	78.77098	215.79280	-603.42493	21.14536	164.97284	-675.20123	56.45761	156.15408	-710.98627	151.05673	215.88266	-795.99579	171.66046	184.58269	-770.44647	221.74550	206.06232	-594.53302	221.66046	173.16150	-882.47778	296.06058	144.61819	-560.14368	260.42599	165.92683	-666.81006	298.63641	160.74590	-629.37885	305.44006	162.26372	-528.12799	304.54727	146.78020	-685.99615	-71.97271	1539.08777	-780.16827	96.92877	1051.63159	-765.72144	-5.10854	208.74263	-794.71716	55.39980	175.51892	-754.50671	-35.23871	489.41129	-559.46649	-38.31133	165.08839	-876.02838	-78.54763	141.55200	-582.58545	-8.14263	1051.10254	-695.75745	-28.49887	611.84119	-706.71027	-25.42663	567.01990	-675.16052	171.69632	156.48445	-622.09497	-76.68475	159.54819	-668.20703	-55.27681	732.21216	-571.82843	219.51450	1071.19556	-641.58197	-71.50691	863.10193	-669.75128	263.11722	709.34778	-659.75079	20.87283	518.61578	-682.53094	80.33344	574.39978	-678.18683	142.79118	571.90564	
75	1.480	-669.96753	115.65010	1847.42822	-702.65875	294.23022	1531.86279	-625.53204	278.19217	877.09619	-573.93512	-0.89011	802.02905	-567.23132	213.17340	813.82458	-713.31342	247.95657	638.71039	-718.35217	244.33220	575.90906	-665.55884	204.92682	531.06976	-760.97021	253.22125	503.67416	-662.99536	-66.20698	163.97755	-517.39606	-72.59649	143.49182	-716.42126	78.73711	215.56155	-603.47174	21.04561	165.00662	-675.06787	56.88658	156.35632	-710.74823	151.27837	215.85493	-796.16522	171.68939	184.63162	-770.35828	221.81247	206.12453	-594.40631	221.70886	173.17548	-882.56006	296.11014	144.61603	-560.08508	260.56030	165.97980	-666.66534	298.62756	160.71053	-629.10547	305.22321	162.52681	-528.12360	304.36343	146.55630	-685.90753	-72.07880	1539.25488	-780.16827	96.92877	1051.63159	-765.73987	-5.04821	208.77240	-794.65942	55.31039	175.51915	-754.45911	-35.13909	489.40326	-559.50427	-38.22765	165.08305	-876.03320	-78.59757	141.50241	-582.61871	-8.17825	1051.17041	-695.86536	-28.46416	612.00311	-706.64294	-25.31822	566.86926	-675.44452	171.81827	156.36185	-622.01862	-76.85032	159.59120	-668.47815	-55.38726	732.53400	-571.90833	219.60381	1071.27722	-641.73810	-71.32119	862.99469	-669.62177	263.30719	709.41895	-659.48804	20.97956	518.42773	-682.70044	80.54755	574.57031	-678.18683	142.79118	571.90564	
76	1.500	-669.25323	115.80906	1847.53296	-702.28619	294.29886	1531.89270	-625.26843	278.51724	877.43518	-574.05060	-0.98961	801.92633	-567.54376	213.17149	813.85297	-713.19464	247.69017	638.69214	-718.44714	244.33452	575.72961	-665.65527	205.01260	530.93457	-761.04596	253.35126	503.75769	-662.83984	-66.04817	163.66753	-517.45593	-72.73692	143.31560	-716.52173	78.87680	215.66255	-603.60406	21.03230	165.02513	-675.20123	56.45761	156.15408	-710.92712	151.16064	216.00569	-796.17523	171.66129	184.52028	-770.45367	221.70909	206.07123	-594.51501	221.72072	173.23067	-882.43616	296.14734	144.72641	-560.14368	260.42599	165.92683	-666.73145	298.60690	160.62312	-629.28412	305.59845	162.45706	-528.11969	304.63617	146.75458	-685.71613	-71.74655	1539.18445	-780.09204	97.15462	1051.60449	-765.73987	-5.04821	208.77240	-794.66870	55.59248	175.19547	-754.50598	-35.15783	489.48383	-559.55225	-38.14575	165.05917	-876.05139	-78.44123	141.62697	-582.52936	-8.01552	1051.17627	-695.75128	-28.44174	611.88861	-706.56201	-25.43641	566.98608	-675.42804	171.92091	156.19180	-622.01709	-76.66463	159.66518	-668.25146	-55.10935	732.31982	-571.66553	220.04948	1071.35498	-641.91125	-71.37689	863.10870	-669.62177	263.30719	709.41895	-659.77808	20.81525	518.58795	-682.57050	80.52943	574.43201	-677.94263	143.03140	571.98474	
77	1.520	-668.46399	116.06319	1847.56213	-702.15253	294.52112	1531.96765	-625.26843	278.51724	877.43518	-574.05060	-0.98961	801.92633	-567.34027	213.18459	813.86792	-713.23956	247.86351	638.72711	-718.34338	244.20808	575.64771	-665.46490	205.13782	531.11804	-761.04596	253.35126	503.75769	-663.00623	-66.15770	164.01468	-517.49664	-72.57735	143.06798	-716.37146	78.92653	215.57336	-603.37714	21.13102	165.04791	-675.12555	56.57237	156.19583	-710.92712	151.16064	216.00569	-795.99976	171.83386	184.63516	-770.48285	221.65584	205.84630	-594.42474	221.79633	173.19043	-882.51917	296.23361	144.77328	-560.06720	260.41599	166.00633	-666.66705	298.69608	160.80539	-629.25348	305.61343	162.52524	-528.03589	304.71042	146.77905	-685.52454	-71.77582	1539.45691	-780.21124	97.05998	1051.69617	-765.69037	-5.05845	208.85588	-794.66998	55.52145	175.27498	-754.51483	-35.04667	489.37149	-559.44379	-38.27356	165.03055	-876.02838	-78.54763	141.55200	-582.83838	-7.77347	1051.39905	-695.86536	-28.46416	612.00311	-706.59705	-25.14513	566.81561	-675.28876	171.83105	156.33194	-621.88055	-76.95821	159.67033	-668.61603	-55.33197	732.49170	-571.87885	219.82796	1071.07056	-641.91125	-71.37689	863.10870	-669.56488	263.36029	709.27429	-659.54858	20.87495	518.79883	-682.70044	80.54755	574.57031	-678.18396	143.24451	571.90448	
